<svg id="Calque_2" xmlns="http://www.w3.org/2000/svg" viewBox="0 0 687.66 178.2"><defs><style>
      .cls-1 {
        fill: #fc145e;
      }
      .cls-2 {
        fill: #ff99bd;
      }
      .cls-3 {
        fill: #80eaff;
      }
      .cls-4 {
        fill: #a6c0ff;
      }
      .cls-5 {
        fill: #22c8ef;
      }
      .cls-6 {
        fill: #1b56e2;
      }
      .cls-7 {
        fill: #80ffb7;
      }
      .cls-8 {
        fill: #24e36a;
      }
    </style></defs><g id="Calque_1-2"><g><g><path class="cls-2" d="m512.99,89.1h-64.8v-24.3h.02V24.3c-.01-13.36-10.94-24.3-24.31-24.3-49.21,0-89.1,39.9-89.1,89.1,0,4.62.36,9.14,1.03,13.57,6.53,42.77,43.48,75.53,88.07,75.53,49.21,0,89.1-39.9,89.1-89.1h0Z"></path><path class="cls-1" d="m488.7,113.4h-89.1c-13.36,0-24.3-10.93-24.3-24.3s10.94-24.3,24.3-24.3h89.1c13.37,0,24.3,10.94,24.3,24.3s-10.93,24.3-24.3,24.3"></path></g><g><path class="cls-3" d="m596.64,56.71h0s0-.01,0-.01l-49.43-49.58c-4.74-4.74-10.98-7.12-17.22-7.12s-12.43,2.35-17.15,7.06c-9.46,9.44-9.49,24.9-.06,34.37l56.95,57.11c.84.84,1.72,1.6,2.65,2.3h0c4.15,3.11,9.08,4.71,14.04,4.81h1.02c3.12-.07,6.22-.72,9.12-1.97,0,0,.01,0,.02,0,0,0,0,0,0,0,3.08,1.33,6.38,1.99,9.68,1.99,5.2,0,10.39-1.64,14.72-4.93h0c.85-.66,1.66-1.36,2.44-2.13l57.11-56.95c9.46-9.43,9.49-24.89.05-34.36-4.73-4.74-10.97-7.11-17.21-7.11s-12.43,2.35-17.15,7.06l-49.58,49.44h0,0s0,.01,0,.01m.05,0h0"></path><path class="cls-5" d="m572.4,153.9v-72.9c0-13.37,10.93-24.3,24.3-24.3s24.3,10.93,24.3,24.3v72.9c0,13.37-10.93,24.3-24.3,24.3s-24.3-10.93-24.3-24.3"></path></g><g><path class="cls-8" d="m113.4,48.6H24.3C10.94,48.6,0,37.67,0,24.3S10.94,0,24.3,0h89.1C126.76,0,137.7,10.93,137.7,24.3s-10.93,24.3-24.3,24.3"></path><path class="cls-7" d="m113.4,64.8H24.3c-13.37,0-24.3,10.94-24.3,24.3s10.93,24.3,24.3,24.3h89.1c13.36,0,24.3-10.93,24.3-24.3s-10.95-24.3-24.3-24.3"></path><path class="cls-8" d="m113.4,178.2H24.3c-13.36,0-24.3-10.93-24.3-24.3s10.94-24.3,24.3-24.3h89.1c13.36,0,24.3,10.94,24.3,24.3s-10.93,24.3-24.3,24.3"></path></g><g><path class="cls-4" d="m221.4,0h-32.4C202.36,0,213.31,10.93,213.31,24.3v129.6c0,13.37-10.95,24.3-24.3,24.3h32.4c49.21,0,89.09-39.9,89.09-89.1S270.61,0,221.4,0"></path><path class="cls-6" d="m206.16,7.14c-4.4-4.4-10.48-7.14-17.16-7.14-13.37,0-24.3,10.93-24.3,24.3v129.6c0,13.37,10.94,24.3,24.3,24.3s24.3-10.93,24.3-24.3V24.3c0-6.68-2.73-12.76-7.14-17.16Z"></path></g></g></g></svg>